<svg width="14" height="14" viewBox="0 0 14 14" fill="none" xmlns="http://www.w3.org/2000/svg">
<path d="M7 9.68137C6.9 9.68137 6.80625 9.66587 6.71875 9.63487C6.63125 9.60387 6.55 9.55062 6.475 9.47512L3.775 6.77512C3.625 6.62512 3.553 6.45012 3.559 6.25012C3.565 6.05012 3.637 5.87512 3.775 5.72512C3.925 5.57512 4.10325 5.49712 4.30975 5.49112C4.51625 5.48512 4.69425 5.55687 4.84375 5.70637L6.25 7.11262V1.75012C6.25 1.53762 6.322 1.35962 6.466 1.21612C6.61 1.07262 6.788 1.00062 7 1.00012C7.212 0.999625 7.39024 1.07162 7.53475 1.21612C7.67924 1.36062 7.75099 1.53862 7.74999 1.75012V7.11262L9.15624 5.70637C9.30624 5.55637 9.48449 5.48437 9.69099 5.49037C9.89749 5.49637 10.0755 5.57462 10.225 5.72512C10.3625 5.87512 10.4345 6.05012 10.441 6.25012C10.4475 6.45012 10.3755 6.62512 10.225 6.77512L7.52499 9.47512C7.44999 9.55012 7.36874 9.60337 7.28125 9.63487C7.19375 9.66637 7.1 9.68187 7 9.68137ZM2.5 13.0001C2.0875 13.0001 1.7345 12.8534 1.441 12.5599C1.1475 12.2664 1.0005 11.9131 1 11.5001V10.0001C1 9.78762 1.072 9.60962 1.216 9.46612C1.36 9.32262 1.538 9.25062 1.75 9.25012C1.962 9.24962 2.14025 9.32162 2.28475 9.46612C2.42925 9.61062 2.501 9.78862 2.5 10.0001V11.5001H11.5V10.0001C11.5 9.78762 11.572 9.60962 11.716 9.46612C11.86 9.32262 12.038 9.25062 12.25 9.25012C12.462 9.24962 12.6402 9.32162 12.7847 9.46612C12.9292 9.61062 13.001 9.78862 13 10.0001V11.5001C13 11.9126 12.8532 12.2659 12.5597 12.5599C12.2662 12.8539 11.913 13.0006 11.5 13.0001H2.5Z" fill="#B0B6CA"/>
</svg>
