<svg width="15" height="14" viewBox="0 0 15 14" fill="none" xmlns="http://www.w3.org/2000/svg">
<path d="M7.93652 0.00695801C9.38946 0.071091 10.7843 0.612919 11.9004 1.55383C13.0907 2.55742 13.8881 3.95 14.1514 5.4845C14.4146 7.01906 14.1267 8.59759 13.3389 9.94055C12.551 11.2835 11.3136 12.3053 9.8457 12.8243C8.37782 13.3433 6.7732 13.3258 5.31641 12.7765C3.85969 12.2271 2.64353 11.1803 1.88379 9.82141C1.12415 8.46239 0.869963 6.87844 1.16504 5.34973C1.38101 4.23096 1.882 3.19515 2.60938 2.33606H0.75C0.335861 2.33606 0.000121045 2.00017 0 1.58606C0 1.17185 0.335786 0.83606 0.75 0.83606H4.92871L5.00586 0.839966C5.38393 0.878488 5.67871 1.19782 5.67871 1.58606V5.76477C5.67859 6.17885 5.34281 6.51472 4.92871 6.51477C4.51473 6.51459 4.17883 6.17877 4.17871 5.76477V2.86145C3.3857 3.59663 2.84383 4.56627 2.6377 5.63391C2.40966 6.81531 2.60624 8.03973 3.19336 9.08997C3.78046 10.14 4.72009 10.9486 5.8457 11.3732C6.97147 11.7976 8.21138 11.8103 9.3457 11.4093C10.4799 11.0082 11.4362 10.2194 12.0449 9.18176C12.6537 8.14401 12.8762 6.92421 12.6729 5.7384C12.4694 4.55272 11.8532 3.47682 10.9336 2.70129C10.0713 1.97434 8.99361 1.55471 7.87109 1.505L7.64551 1.50012L7.56934 1.49622C7.19102 1.45796 6.89556 1.13852 6.89551 0.750122C6.89551 0.335971 7.23138 0.000216409 7.64551 0.00012207L7.93652 0.00695801Z" fill="#B0B6CA"/>
</svg>
